HIERARCHY
ROOT Hips
{
	OFFSET 0.000000 0.000000 0.000000 
	CHANNELS 6 Xposition Yposition Zposition Zrotation Yrotation Xrotation
	JOINT LeftUpLeg
	{
		OFFSET 1.363060 -1.794630 0.839290 
		CHANNELS 3 Zrotation Yrotation Xrotation
		JOINT LeftLeg
		{
			OFFSET 2.448110 -6.726130 0.000000 
			CHANNELS 3 Zrotation Yrotation Xrotation
			JOINT LeftFoot
			{
				OFFSET 2.562200 -7.039590 0.000000 
				CHANNELS 3 Zrotation Yrotation Xrotation
				JOINT LeftToeBase
				{
					OFFSET 0.157640 -0.433110 2.322550 
					CHANNELS 3 Zrotation Yrotation Xrotation
					End Site
					{
						OFFSET 0.000000 0.000000 0.000000 
					}
				}
			}
		}
	}
	JOINT RightUpLeg
	{
		OFFSET -1.305520 -1.794630 0.839290 
		CHANNELS 3 Zrotation Yrotation Xrotation
		JOINT RightLeg
		{
			OFFSET -2.542530 -6.985550 0.000000 
			CHANNELS 3 Zrotation Yrotation Xrotation
			JOINT RightFoot
			{
				OFFSET -2.568260 -7.056230 0.000000 
				CHANNELS 3 Zrotation Yrotation Xrotation
				JOINT RightToeBase
				{
					OFFSET -0.164730 -0.452590 2.363150 
					CHANNELS 3 Zrotation Yrotation Xrotation
					End Site
					{
						OFFSET 0.000000 0.000000 0.000000 
					}
				}
			}
		}
	}
	JOINT Spine
	{
		OFFSET 0.028270 2.035590 -0.193380 
		CHANNELS 3 Zrotation Yrotation Xrotation
		JOINT Spine1
		{
			OFFSET 0.056720 2.048850 -0.042750 
			CHANNELS 3 Zrotation Yrotation Xrotation
			JOINT Neck1
			{
				OFFSET -0.054170 1.746240 0.172020 
				CHANNELS 3 Zrotation Yrotation Xrotation
				JOINT Head
				{
					OFFSET 0.104070 1.761360 -0.123970 
					CHANNELS 3 Zrotation Yrotation Xrotation
					End Site
					{
						OFFSET 0.000000 0.000000 0.000000 
					}
				}
			}
			JOINT LeftArm
			{
				OFFSET 3.362410 1.200890 -0.311210 
				CHANNELS 3 Zrotation Yrotation Xrotation
				JOINT LeftForeArm
				{
					OFFSET 4.983000 -0.000000 -0.000000 
					CHANNELS 3 Zrotation Yrotation Xrotation
					JOINT LeftHand
					{
						OFFSET 3.483560 -0.000000 -0.000000 
						CHANNELS 3 Zrotation Yrotation Xrotation
						JOINT LeftHandIndex1
						{
							OFFSET 0.715260 -0.000000 -0.000000 
							CHANNELS 3 Zrotation Yrotation Xrotation
							End Site
							{
								OFFSET 0.000000 0.000000 0.000000 
							}
						}
					}
				}
			}
			JOINT RightArm
			{
				OFFSET -3.136600 1.374050 -0.404650 
				CHANNELS 3 Zrotation Yrotation Xrotation
				JOINT RightForeArm
				{
					OFFSET -5.241900 -0.000000 -0.000000 
					CHANNELS 3 Zrotation Yrotation Xrotation
					JOINT RightHand
					{
						OFFSET -3.444170 -0.000000 -0.000000 
						CHANNELS 3 Zrotation Yrotation Xrotation
						JOINT RightHandIndex1
						{
							OFFSET -0.622530 -0.000000 -0.000000 
							CHANNELS 3 Zrotation Yrotation Xrotation
							End Site
							{
								OFFSET 0.000000 0.000000 0.000000 
							}
						}
					}
				}
			}
		}
	}
}
MOTION
Frames: 18
Frame Time: 0.041667
16.144853 17.145418 -48.920980 4.187300 -3.176561 27.610931 -9.443243 4.297542 -67.275549 3.804400 16.178681 43.414815 4.425326 -8.561684 32.601937 0.832500 -5.820600 -16.264900 16.485583 7.293122 4.092715 -1.557627 -9.883159 24.685784 2.578499 -25.992643 37.340954 -1.711600 8.237500 -23.437800 -0.929901 3.065107 -3.873051 -4.195212 1.881902 -6.772358 9.295810 -14.068102 -4.944678 4.087300 -6.628500 2.596900 -74.621861 44.237802 34.814590 125.960826 -55.916820 -93.623619 -0.001090 -0.258040 -14.028071 -7.125000 0.000000 0.000000 76.007080 5.257329 42.371066 -113.990084 56.348546 -86.085996 1.415669 0.154768 -2.579936 7.125000 0.000000 0.000000 
16.029990 17.093412 -48.392116 4.722344 -2.233536 27.042728 -9.739290 3.869172 -66.243153 4.094005 16.431114 44.865353 4.744663 -10.998339 30.242906 0.343100 -3.764000 -10.413600 17.857005 5.925827 2.609737 -3.131947 -11.454264 30.368226 3.427275 -25.959627 34.571804 -1.542300 7.839500 -22.227800 -0.947535 2.498952 -3.851988 -4.030300 1.569541 -6.972764 9.507493 -14.118529 -5.058342 4.219600 -6.654100 2.391600 -74.682837 42.573543 34.501443 125.767810 -55.854126 -93.571738 -0.033429 -0.282486 -14.665690 -7.125000 0.000000 0.000000 77.160463 3.641794 42.383185 -107.437602 57.639111 -81.025770 1.462144 0.268808 -3.380646 7.125000 0.000000 0.000000 
15.909969 17.099967 -47.843697 5.403456 -1.218375 26.396963 -9.610224 3.140500 -64.447890 4.675309 16.813939 46.596451 4.816279 -11.867597 27.094211 0.170000 -2.656200 -7.322900 18.990861 4.738236 0.507149 -4.841492 -12.965244 36.188794 3.427181 -25.487561 33.944807 -1.603100 7.985100 -22.669000 -0.980840 1.899975 -3.801521 -3.919240 1.242137 -7.054492 9.685160 -14.228458 -5.046111 4.328800 -6.702100 2.359100 -74.670856 40.424223 34.467594 125.391305 -55.817708 -93.397871 -0.041084 -0.312571 -15.393946 -7.125000 0.000000 0.000000 78.248911 2.145067 42.183303 -100.231320 58.376310 -75.428435 1.463870 0.436355 -3.652503 7.125000 0.000000 0.000000 
15.798867 17.048606 -47.315692 6.065953 -0.100568 25.741284 -9.617069 2.405919 -62.509417 5.318832 17.180840 48.296768 4.797397 -11.980332 24.011465 0.069700 -1.703300 -4.686300 20.043509 3.411213 -1.509080 -6.495751 -14.248656 41.851976 3.479008 -24.619791 32.719695 -1.747100 8.318200 -23.684800 -1.023502 1.328060 -3.752541 -3.862805 0.933666 -7.141501 9.802100 -14.298022 -4.926960 4.396500 -6.729500 2.441900 -74.393235 37.954696 34.809433 124.755332 -55.857143 -93.037918 -0.043179 -0.354721 -16.089924 -7.125000 0.000000 0.000000 79.456898 0.707938 41.873404 -92.303597 58.425275 -69.086311 1.460763 0.589705 -4.455932 7.125000 0.000000 0.000000 
15.667457 17.044738 -46.785217 7.437282 1.052884 25.118364 -10.425953 1.808636 -61.008768 5.792289 17.418335 49.679873 4.926483 -12.599327 21.261300 0.089700 -1.931400 -5.316200 20.125370 2.029024 -4.094469 -8.020071 -15.309146 47.593766 3.677846 -22.581458 29.866294 -2.453300 9.752500 -28.179000 -1.058176 0.562220 -3.708020 -3.487085 0.550845 -7.369690 9.884700 -14.460220 -5.040644 4.450200 -6.812400 2.375400 -74.294822 34.852809 35.694702 123.638591 -55.992048 -92.294390 -0.051280 -0.383437 -15.855029 -7.125000 0.000000 0.000000 80.908771 -0.989628 41.540943 -84.008453 57.762193 -62.060385 1.487015 0.672025 -5.059450 7.125000 0.000000 0.000000 
15.549371 16.994989 -46.264949 8.579507 2.039483 24.612307 -10.984185 1.186567 -59.385541 6.294649 17.638867 50.998636 5.040995 -12.919443 18.435418 0.075600 -1.773700 -4.880600 20.256555 0.895265 -6.495283 -9.689863 -16.294494 53.325888 3.781985 -21.325014 27.735161 -2.669700 10.140200 -29.431800 -1.100841 -0.110789 -3.665582 -3.149056 0.220200 -7.527008 10.024980 -14.570570 -5.084887 4.535700 -6.864400 2.337600 -74.185976 32.016157 36.265396 122.664809 -56.109762 -91.654473 -0.061786 -0.414270 -15.877909 -7.125000 0.000000 0.000000 82.188464 -2.595004 41.041274 -76.542678 56.686795 -55.391287 1.490218 0.718462 -5.772609 7.125000 0.000000 0.000000 
15.430425 16.946100 -45.748657 9.832023 2.990753 24.199585 -11.609358 0.599650 -57.675799 6.698057 17.772652 52.007837 5.183256 -13.145954 15.769646 0.091100 -1.946700 -5.358300 20.033006 -0.173237 -9.097281 -11.335797 -17.123463 58.975323 3.771084 -19.834631 25.604415 -2.872800 10.486300 -30.566300 -1.143021 -0.796637 -3.627386 -2.739545 -0.108780 -7.676050 10.167433 -14.679947 -5.143491 4.623000 -6.915200 2.301800 -74.142505 28.923658 36.952352 121.473793 -56.269921 -90.842272 -0.074115 -0.443022 -15.657290 -7.125000 0.000000 0.000000 83.447721 -4.206266 40.164078 -69.526902 55.353264 -48.916802 1.500276 0.732822 -6.509651 7.125000 0.000000 0.000000 
15.310834 16.898070 -45.238274 11.117255 3.897611 23.910514 -12.230741 0.048232 -55.976305 7.048956 17.856437 52.841288 5.372025 -13.417890 13.183030 0.129300 -2.317800 -6.384700 19.536477 -1.144314 -11.892737 -12.945477 -17.803169 64.502736 3.654501 -18.148639 23.467408 -3.045200 10.767900 -31.501000 -1.180233 -1.476078 -3.600063 -2.277624 -0.431040 -7.821506 10.310415 -14.784457 -5.211040 4.709900 -6.963300 2.268100 -74.201768 25.593770 37.716819 120.092640 -56.453841 -89.875645 -0.090170 -0.467782 -15.200911 -7.125000 0.000000 0.000000 84.644514 -5.839763 38.925212 -63.017822 53.853688 -42.858012 1.530302 0.723801 -7.294644 7.125000 0.000000 0.000000 
15.191673 16.853694 -44.733264 12.350829 4.765052 23.746755 -12.753889 -0.454161 -54.261908 7.315848 17.878779 53.411058 5.621100 -13.786120 10.760081 0.174200 -2.688400 -7.412400 18.863943 -1.995213 -14.886968 -14.512508 -18.343768 69.870497 3.437053 -16.323555 21.377812 -3.175200 10.973400 -32.190300 -1.208609 -2.138975 -3.586805 -1.798971 -0.745191 -7.966457 10.451118 -14.880005 -5.279247 4.793400 -7.006800 2.240200 -74.401163 22.056983 38.520533 118.620505 -56.622295 -88.826678 -0.109999 -0.486885 -14.571463 -7.125000 0.000000 0.000000 85.735702 -7.512254 37.424666 -57.106471 52.238885 -37.414644 1.583958 0.711555 -8.186235 7.125000 0.000000 0.000000 
15.073694 16.812326 -44.234378 13.460209 5.581343 23.700175 -13.120511 -0.886327 -52.539577 7.509922 17.850277 53.734445 5.923699 -14.228732 8.490195 0.225700 -3.057900 -8.440000 18.103100 -2.697572 -18.068543 -16.024752 -18.755579 75.025608 3.131286 -14.420704 19.398765 -3.238100 11.070900 -32.519500 -1.227734 -2.767717 -3.589460 -1.341978 -1.046186 -8.111095 10.586826 -14.960700 -5.333034 4.868600 -7.042700 2.230700 -74.762246 18.355120 39.340691 117.212581 -56.729765 -87.811007 -0.132645 -0.498159 -13.842494 -7.125000 0.000000 0.000000 86.696077 -9.239528 35.781504 -51.864781 50.557613 -32.695117 1.661618 0.709474 -9.296067 7.125000 0.000000 0.000000 
14.957971 16.773214 -43.742369 14.413197 6.343695 23.749244 -13.313324 -1.245667 -50.813348 7.636163 17.778435 53.832481 6.269560 -14.739978 6.431080 0.258900 -3.273500 -9.041000 17.302740 -3.258410 -21.418359 -17.466911 -19.050836 79.918217 2.768452 -12.501264 17.495782 -3.282600 11.139000 -32.750100 -1.238356 -3.363537 -3.608681 -0.935875 -1.336118 -8.265798 10.719761 -15.022878 -5.374476 4.934800 -7.069200 2.239800 -75.305080 14.560611 40.157892 116.085954 -56.729173 -86.993758 -0.155689 -0.499965 -13.077366 -7.125000 0.000000 0.000000 87.514572 -11.039208 34.121808 -47.354686 48.884811 -28.747902 1.756063 0.729800 -10.696486 7.125000 0.000000 0.000000 
14.844398 16.737112 -43.256593 15.201134 7.046035 23.858901 -13.337554 -1.527635 -49.085882 7.702727 17.669598 53.729943 6.658175 -15.336321 4.583587 0.262500 -3.296200 -9.104500 16.487614 -3.686745 -24.892058 -18.820670 -19.244864 84.488799 2.373937 -10.617838 15.651007 -3.323600 11.201300 -32.961900 -1.241345 -3.928285 -3.641805 -0.594766 -1.616381 -8.430796 10.845603 -15.058290 -5.401172 4.987600 -7.082600 2.266600 -76.045202 10.746780 40.966932 115.460392 -56.584888 -86.545115 -0.177188 -0.490975 -12.342899 -7.125000 0.000000 0.000000 88.187239 -12.927462 32.552516 -43.588424 47.305429 -25.550106 1.863838 0.774860 -12.377231 7.125000 0.000000 0.000000 
14.732114 16.704125 -42.776403 15.864231 7.676124 23.989222 -13.253317 -1.726215 -47.347796 7.711757 17.523886 53.441174 7.052774 -15.892564 2.938713 0.260300 -3.282100 -9.065200 15.634013 -4.004465 -28.433987 -20.071291 -19.356632 88.681716 1.963943 -8.808831 13.894840 -3.355300 11.249100 -33.124600 -1.237521 -4.476694 -3.687516 -0.297497 -1.891181 -8.620343 10.966475 -15.055165 -5.417117 5.029700 -7.077500 2.305200 -76.998502 6.994139 41.773700 115.515073 -56.271012 -86.607120 -0.197058 -0.470739 -11.693549 -7.125000 0.000000 0.000000 88.714578 -14.925166 31.158055 -40.581094 45.920076 -23.074490 1.970904 0.839911 -14.247864 7.125000 0.000000 0.000000 
14.620797 16.674254 -42.300941 16.467666 8.227713 24.123056 -13.129616 -1.869211 -45.584943 7.660899 17.340224 52.982555 7.420262 -16.313639 1.503341 0.265900 -3.317000 -9.162600 14.683815 -4.245133 -32.011235 -21.206080 -19.409281 92.446611 1.554935 -7.098372 12.211518 -3.387200 11.296900 -33.287700 -1.229296 -5.026874 -3.744148 -0.024086 -2.165551 -8.833542 11.081109 -15.011240 -5.425448 5.060600 -7.052700 2.352400 -78.162544 3.365808 42.607958 116.362501 -55.760514 -87.272760 -0.213922 -0.441170 -11.218523 -7.125000 0.000000 0.000000 89.112588 -17.043430 29.979925 -38.321353 44.817308 -21.271758 2.066501 0.913887 -16.089974 7.125000 0.000000 0.000000 
14.509694 16.647069 -41.828058 17.051006 8.692227 24.253020 -13.001262 -1.979354 -43.787355 7.546326 17.118069 52.361066 7.757263 -16.614911 0.287159 0.267200 -3.325500 -9.186200 13.608664 -4.428473 -35.594482 -22.214273 -19.427559 95.735227 1.160030 -5.510712 10.593321 -3.417300 11.341700 -33.441100 -1.216214 -5.582199 -3.807552 0.251693 -2.438550 -9.046844 11.183903 -14.921083 -5.426293 5.081200 -7.005600 2.402400 -79.528437 -0.099290 43.527888 118.009473 -55.025079 -88.548714 -0.230276 -0.405689 -11.023473 -7.125000 0.000000 0.000000 89.389023 -19.284882 29.034568 -36.775053 44.059600 -20.080889 2.146193 0.975084 -17.623830 7.125000 0.000000 0.000000 
14.397733 16.623860 -41.355390 17.606952 9.082993 24.381298 -12.842639 -2.085722 -41.943990 7.362089 16.856046 51.569308 8.038953 -16.717546 -0.709655 0.289500 -3.460400 -9.563200 12.445701 -4.537342 -39.163237 -23.085480 -19.434959 98.498133 0.806072 -4.127223 9.086753 -3.427300 11.356600 -33.492200 -1.192860 -6.140942 -3.875587 0.547694 -2.708804 -9.240109 11.262136 -14.781146 -5.415152 5.086900 -6.934900 2.454100 -81.069237 -3.381896 44.590232 120.347635 -54.040079 -90.351410 -0.248229 -0.368126 -11.194800 -7.125000 0.000000 0.000000 89.543177 -21.652021 28.329785 -35.898367 43.679063 -19.443457 2.208185 1.003437 -18.634074 7.125000 0.000000 0.000000 
14.284696 16.605594 -40.880036 18.111488 9.411308 24.504944 -12.613532 -2.216028 -40.034236 7.103778 16.552785 50.598834 8.252203 -16.585080 -1.490395 0.344300 -3.770500 -10.432000 11.236864 -4.556936 -42.695466 -23.805539 -19.453532 100.690760 0.509368 -2.991435 7.701572 -3.416100 11.339900 -33.435100 -1.156423 -6.689762 -3.946327 0.859589 -2.971577 -9.403973 11.304872 -14.597534 -5.388927 5.075300 -6.844100 2.506300 -82.741650 -6.468592 45.848315 123.203421 -52.789817 -92.542560 -0.269372 -0.333467 -11.766990 -7.125000 0.000000 0.000000 89.583567 -24.139174 27.846803 -35.656556 43.684452 -19.319731 2.251538 0.998100 -19.017868 7.125000 0.000000 0.000000 
14.169941 16.593560 -40.399309 18.524408 9.665831 24.638320 -12.262051 -2.382741 -38.065715 6.764485 16.204938 49.439012 8.366605 -16.146902 -2.015552 0.456900 -4.336100 -12.024200 10.033931 -4.428112 -46.196713 -24.360601 -19.502154 102.278050 0.287841 -2.158188 6.490709 -3.371500 11.273400 -33.207700 -1.107319 -7.199543 -4.018380 1.168955 -3.216173 -9.524527 11.307666 -14.388996 -5.342558 5.045000 -6.742600 2.563800 -84.477448 -9.364824 47.345489 126.336165 -51.293261 -94.929767 -0.295143 -0.304602 -12.701728 -7.125000 0.000000 0.000000 89.525853 -26.724849 27.552681 -35.967946 44.031773 -19.641967 2.280110 0.957530 -18.813077 7.125000 0.000000 0.000000 
